<mxfile host="app.diagrams.net" agent="Mozilla/5.0 (Windows NT 10.0; Win64; x64) AppleWebKit/537.36 (KHTML, like Gecko) Chrome/133.0.0.0 Safari/537.36" version="26.0.15">
  <diagram name="第 1 页" id="6ry_pnS2vJJyaQvhrR7t">
    <mxGraphModel dx="1502" dy="556" grid="1" gridSize="10" guides="1" tooltips="1" connect="1" arrows="1" fold="1" page="1" pageScale="1" pageWidth="827" pageHeight="1169" math="0" shadow="0">
      <root>
        <mxCell id="0" />
        <mxCell id="1" parent="0" />
        <mxCell id="5bShoopTlFWPeDc6z4Nc-4" value="" style="edgeStyle=orthogonalEdgeStyle;rounded=0;orthogonalLoop=1;jettySize=auto;html=1;" parent="1" source="5bShoopTlFWPeDc6z4Nc-1" target="5bShoopTlFWPeDc6z4Nc-2" edge="1">
          <mxGeometry relative="1" as="geometry" />
        </mxCell>
        <mxCell id="5bShoopTlFWPeDc6z4Nc-1" value="并列" style="rounded=1;whiteSpace=wrap;html=1;" parent="1" vertex="1">
          <mxGeometry x="320" y="560" width="40" height="40" as="geometry" />
        </mxCell>
        <mxCell id="5bShoopTlFWPeDc6z4Nc-5" value="" style="edgeStyle=orthogonalEdgeStyle;rounded=0;orthogonalLoop=1;jettySize=auto;html=1;" parent="1" source="5bShoopTlFWPeDc6z4Nc-2" target="5bShoopTlFWPeDc6z4Nc-3" edge="1">
          <mxGeometry relative="1" as="geometry" />
        </mxCell>
        <mxCell id="5bShoopTlFWPeDc6z4Nc-2" value="递进" style="rounded=1;whiteSpace=wrap;html=1;" parent="1" vertex="1">
          <mxGeometry x="440" y="560" width="40" height="40" as="geometry" />
        </mxCell>
        <mxCell id="5bShoopTlFWPeDc6z4Nc-3" value="转折" style="rounded=1;whiteSpace=wrap;html=1;" parent="1" vertex="1">
          <mxGeometry x="560" y="560" width="40" height="40" as="geometry" />
        </mxCell>
        <mxCell id="dy8uUhy22T9sQn6Ebb2S-6" value="" style="edgeStyle=orthogonalEdgeStyle;rounded=0;orthogonalLoop=1;jettySize=auto;html=1;" parent="1" source="5bShoopTlFWPeDc6z4Nc-6" target="5bShoopTlFWPeDc6z4Nc-1" edge="1">
          <mxGeometry relative="1" as="geometry" />
        </mxCell>
        <mxCell id="5bShoopTlFWPeDc6z4Nc-6" value="反映思考丰富" style="text;html=1;align=center;verticalAlign=middle;whiteSpace=wrap;rounded=0;fillColor=#fff2cc;strokeColor=#d6b656;" parent="1" vertex="1">
          <mxGeometry x="300" y="640" width="80" height="40" as="geometry" />
        </mxCell>
        <mxCell id="5bShoopTlFWPeDc6z4Nc-18" style="edgeStyle=orthogonalEdgeStyle;rounded=0;orthogonalLoop=1;jettySize=auto;html=1;" parent="1" source="5bShoopTlFWPeDc6z4Nc-7" target="5bShoopTlFWPeDc6z4Nc-2" edge="1">
          <mxGeometry relative="1" as="geometry" />
        </mxCell>
        <mxCell id="5bShoopTlFWPeDc6z4Nc-7" value="反映思考深入" style="text;html=1;align=center;verticalAlign=middle;whiteSpace=wrap;rounded=0;fillColor=#fff2cc;strokeColor=#d6b656;" parent="1" vertex="1">
          <mxGeometry x="420" y="640" width="80" height="40" as="geometry" />
        </mxCell>
        <mxCell id="dy8uUhy22T9sQn6Ebb2S-4" value="" style="edgeStyle=orthogonalEdgeStyle;rounded=0;orthogonalLoop=1;jettySize=auto;html=1;" parent="1" source="5bShoopTlFWPeDc6z4Nc-8" target="5bShoopTlFWPeDc6z4Nc-3" edge="1">
          <mxGeometry relative="1" as="geometry" />
        </mxCell>
        <mxCell id="5bShoopTlFWPeDc6z4Nc-8" value="反映思考全面" style="text;html=1;align=center;verticalAlign=middle;whiteSpace=wrap;rounded=0;fillColor=#fff2cc;strokeColor=#d6b656;" parent="1" vertex="1">
          <mxGeometry x="540" y="640" width="80" height="40" as="geometry" />
        </mxCell>
        <mxCell id="5bShoopTlFWPeDc6z4Nc-14" value="" style="edgeStyle=orthogonalEdgeStyle;rounded=0;orthogonalLoop=1;jettySize=auto;html=1;" parent="1" source="5bShoopTlFWPeDc6z4Nc-9" target="5bShoopTlFWPeDc6z4Nc-10" edge="1">
          <mxGeometry relative="1" as="geometry" />
        </mxCell>
        <mxCell id="5bShoopTlFWPeDc6z4Nc-9" value="写作格式" style="rounded=1;whiteSpace=wrap;html=1;" parent="1" vertex="1">
          <mxGeometry x="40" y="400" width="80" height="40" as="geometry" />
        </mxCell>
        <mxCell id="5bShoopTlFWPeDc6z4Nc-15" value="" style="edgeStyle=orthogonalEdgeStyle;rounded=0;orthogonalLoop=1;jettySize=auto;html=1;" parent="1" source="5bShoopTlFWPeDc6z4Nc-10" target="5bShoopTlFWPeDc6z4Nc-11" edge="1">
          <mxGeometry relative="1" as="geometry" />
        </mxCell>
        <mxCell id="5bShoopTlFWPeDc6z4Nc-10" value="what" style="rounded=1;whiteSpace=wrap;html=1;" parent="1" vertex="1">
          <mxGeometry x="160" y="400" width="40" height="40" as="geometry" />
        </mxCell>
        <mxCell id="5bShoopTlFWPeDc6z4Nc-16" value="" style="edgeStyle=orthogonalEdgeStyle;rounded=0;orthogonalLoop=1;jettySize=auto;html=1;" parent="1" source="5bShoopTlFWPeDc6z4Nc-11" target="5bShoopTlFWPeDc6z4Nc-12" edge="1">
          <mxGeometry relative="1" as="geometry" />
        </mxCell>
        <mxCell id="5bShoopTlFWPeDc6z4Nc-11" value="why" style="rounded=1;whiteSpace=wrap;html=1;" parent="1" vertex="1">
          <mxGeometry x="240" y="400" width="40" height="40" as="geometry" />
        </mxCell>
        <mxCell id="5bShoopTlFWPeDc6z4Nc-12" value="how" style="rounded=1;whiteSpace=wrap;html=1;" parent="1" vertex="1">
          <mxGeometry x="320" y="400" width="40" height="40" as="geometry" />
        </mxCell>
        <mxCell id="5bShoopTlFWPeDc6z4Nc-61" value="" style="edgeStyle=orthogonalEdgeStyle;rounded=0;orthogonalLoop=1;jettySize=auto;html=1;" parent="1" source="5bShoopTlFWPeDc6z4Nc-13" target="5bShoopTlFWPeDc6z4Nc-60" edge="1">
          <mxGeometry relative="1" as="geometry" />
        </mxCell>
        <mxCell id="5bShoopTlFWPeDc6z4Nc-13" value="逻辑模板" style="rounded=1;whiteSpace=wrap;html=1;" parent="1" vertex="1">
          <mxGeometry x="40" y="560" width="80" height="40" as="geometry" />
        </mxCell>
        <mxCell id="5bShoopTlFWPeDc6z4Nc-24" value="" style="edgeStyle=orthogonalEdgeStyle;rounded=0;orthogonalLoop=1;jettySize=auto;html=1;" parent="1" source="5bShoopTlFWPeDc6z4Nc-21" target="5bShoopTlFWPeDc6z4Nc-10" edge="1">
          <mxGeometry relative="1" as="geometry" />
        </mxCell>
        <mxCell id="5bShoopTlFWPeDc6z4Nc-21" value="概念表" style="text;html=1;align=center;verticalAlign=middle;whiteSpace=wrap;rounded=0;fillColor=#fff2cc;strokeColor=#d6b656;" parent="1" vertex="1">
          <mxGeometry x="160" y="480" width="40" height="40" as="geometry" />
        </mxCell>
        <mxCell id="5bShoopTlFWPeDc6z4Nc-25" value="" style="edgeStyle=orthogonalEdgeStyle;rounded=0;orthogonalLoop=1;jettySize=auto;html=1;" parent="1" source="5bShoopTlFWPeDc6z4Nc-22" target="5bShoopTlFWPeDc6z4Nc-11" edge="1">
          <mxGeometry relative="1" as="geometry" />
        </mxCell>
        <mxCell id="5bShoopTlFWPeDc6z4Nc-22" value="关系表" style="text;html=1;align=center;verticalAlign=middle;whiteSpace=wrap;rounded=0;fillColor=#fff2cc;strokeColor=#d6b656;" parent="1" vertex="1">
          <mxGeometry x="240" y="480" width="40" height="40" as="geometry" />
        </mxCell>
        <mxCell id="5bShoopTlFWPeDc6z4Nc-26" value="" style="edgeStyle=orthogonalEdgeStyle;rounded=0;orthogonalLoop=1;jettySize=auto;html=1;" parent="1" source="5bShoopTlFWPeDc6z4Nc-23" target="5bShoopTlFWPeDc6z4Nc-12" edge="1">
          <mxGeometry relative="1" as="geometry" />
        </mxCell>
        <mxCell id="5bShoopTlFWPeDc6z4Nc-23" value="流程表" style="text;html=1;align=center;verticalAlign=middle;whiteSpace=wrap;rounded=0;fillColor=#fff2cc;strokeColor=#d6b656;" parent="1" vertex="1">
          <mxGeometry x="320" y="480" width="40" height="40" as="geometry" />
        </mxCell>
        <mxCell id="39l9zTleFLtUQJY5lR-o-71" style="edgeStyle=orthogonalEdgeStyle;rounded=0;orthogonalLoop=1;jettySize=auto;html=1;exitX=0;exitY=0.5;exitDx=0;exitDy=0;entryX=0.75;entryY=0;entryDx=0;entryDy=0;" edge="1" parent="1" source="5bShoopTlFWPeDc6z4Nc-38" target="39l9zTleFLtUQJY5lR-o-48">
          <mxGeometry relative="1" as="geometry" />
        </mxCell>
        <mxCell id="5bShoopTlFWPeDc6z4Nc-38" value="对事物的感知" style="text;html=1;align=center;verticalAlign=middle;whiteSpace=wrap;rounded=0;fillColor=#fff2cc;strokeColor=#d6b656;" parent="1" vertex="1">
          <mxGeometry x="840" y="700" width="80" height="40" as="geometry" />
        </mxCell>
        <mxCell id="39l9zTleFLtUQJY5lR-o-72" style="edgeStyle=orthogonalEdgeStyle;rounded=0;orthogonalLoop=1;jettySize=auto;html=1;exitX=1;exitY=0.5;exitDx=0;exitDy=0;entryX=0.25;entryY=0;entryDx=0;entryDy=0;" edge="1" parent="1" source="5bShoopTlFWPeDc6z4Nc-39" target="39l9zTleFLtUQJY5lR-o-62">
          <mxGeometry relative="1" as="geometry" />
        </mxCell>
        <mxCell id="5bShoopTlFWPeDc6z4Nc-39" value="对动作的感知" style="text;html=1;align=center;verticalAlign=middle;whiteSpace=wrap;rounded=0;fillColor=#fff2cc;strokeColor=#d6b656;" parent="1" vertex="1">
          <mxGeometry x="939" y="700" width="80" height="40" as="geometry" />
        </mxCell>
        <mxCell id="39l9zTleFLtUQJY5lR-o-74" style="edgeStyle=orthogonalEdgeStyle;rounded=0;orthogonalLoop=1;jettySize=auto;html=1;exitX=0;exitY=0.5;exitDx=0;exitDy=0;" edge="1" parent="1" source="5bShoopTlFWPeDc6z4Nc-42">
          <mxGeometry relative="1" as="geometry">
            <mxPoint x="815" y="660" as="targetPoint" />
          </mxGeometry>
        </mxCell>
        <mxCell id="5bShoopTlFWPeDc6z4Nc-42" value="对事物的感知的感知" style="text;html=1;align=center;verticalAlign=middle;whiteSpace=wrap;rounded=0;fillColor=#fff2cc;strokeColor=#d6b656;" parent="1" vertex="1">
          <mxGeometry x="840" y="640" width="80" height="40" as="geometry" />
        </mxCell>
        <mxCell id="39l9zTleFLtUQJY5lR-o-73" style="edgeStyle=orthogonalEdgeStyle;rounded=0;orthogonalLoop=1;jettySize=auto;html=1;exitX=1;exitY=0.5;exitDx=0;exitDy=0;" edge="1" parent="1" source="5bShoopTlFWPeDc6z4Nc-44">
          <mxGeometry relative="1" as="geometry">
            <mxPoint x="1050" y="660" as="targetPoint" />
            <Array as="points" />
          </mxGeometry>
        </mxCell>
        <mxCell id="5bShoopTlFWPeDc6z4Nc-44" value="对动作的感知的感知" style="text;html=1;align=center;verticalAlign=middle;whiteSpace=wrap;rounded=0;fillColor=#fff2cc;strokeColor=#d6b656;" parent="1" vertex="1">
          <mxGeometry x="939" y="640" width="80" height="40" as="geometry" />
        </mxCell>
        <mxCell id="5bShoopTlFWPeDc6z4Nc-48" value="" style="edgeStyle=orthogonalEdgeStyle;rounded=0;orthogonalLoop=1;jettySize=auto;html=1;" parent="1" source="5bShoopTlFWPeDc6z4Nc-46" target="5bShoopTlFWPeDc6z4Nc-47" edge="1">
          <mxGeometry relative="1" as="geometry" />
        </mxCell>
        <mxCell id="5bShoopTlFWPeDc6z4Nc-46" value="记录感知" style="rounded=1;whiteSpace=wrap;html=1;" parent="1" vertex="1">
          <mxGeometry x="40" y="60" width="80" height="40" as="geometry" />
        </mxCell>
        <mxCell id="5bShoopTlFWPeDc6z4Nc-47" value="传递感知" style="rounded=1;whiteSpace=wrap;html=1;" parent="1" vertex="1">
          <mxGeometry x="160" y="60" width="80" height="40" as="geometry" />
        </mxCell>
        <mxCell id="5bShoopTlFWPeDc6z4Nc-53" value="" style="edgeStyle=orthogonalEdgeStyle;rounded=0;orthogonalLoop=1;jettySize=auto;html=1;" parent="1" source="5bShoopTlFWPeDc6z4Nc-49" target="5bShoopTlFWPeDc6z4Nc-50" edge="1">
          <mxGeometry relative="1" as="geometry" />
        </mxCell>
        <mxCell id="5bShoopTlFWPeDc6z4Nc-49" value="形式逻辑" style="rounded=1;whiteSpace=wrap;html=1;" parent="1" vertex="1">
          <mxGeometry x="40" y="320" width="80" height="40" as="geometry" />
        </mxCell>
        <mxCell id="5bShoopTlFWPeDc6z4Nc-54" value="" style="edgeStyle=orthogonalEdgeStyle;rounded=0;orthogonalLoop=1;jettySize=auto;html=1;" parent="1" source="5bShoopTlFWPeDc6z4Nc-50" target="5bShoopTlFWPeDc6z4Nc-52" edge="1">
          <mxGeometry relative="1" as="geometry" />
        </mxCell>
        <mxCell id="5bShoopTlFWPeDc6z4Nc-50" value="非形式逻辑" style="rounded=1;whiteSpace=wrap;html=1;" parent="1" vertex="1">
          <mxGeometry x="160" y="320" width="80" height="40" as="geometry" />
        </mxCell>
        <mxCell id="dy8uUhy22T9sQn6Ebb2S-2" value="" style="edgeStyle=orthogonalEdgeStyle;rounded=0;orthogonalLoop=1;jettySize=auto;html=1;" parent="1" source="5bShoopTlFWPeDc6z4Nc-52" target="dy8uUhy22T9sQn6Ebb2S-1" edge="1">
          <mxGeometry relative="1" as="geometry" />
        </mxCell>
        <mxCell id="5bShoopTlFWPeDc6z4Nc-52" value="认知偏差" style="rounded=1;whiteSpace=wrap;html=1;" parent="1" vertex="1">
          <mxGeometry x="280" y="320" width="80" height="40" as="geometry" />
        </mxCell>
        <mxCell id="5bShoopTlFWPeDc6z4Nc-57" style="edgeStyle=orthogonalEdgeStyle;rounded=0;orthogonalLoop=1;jettySize=auto;html=1;exitX=0.5;exitY=0;exitDx=0;exitDy=0;" parent="1" source="5bShoopTlFWPeDc6z4Nc-56" edge="1">
          <mxGeometry relative="1" as="geometry">
            <mxPoint x="930" y="550" as="targetPoint" />
          </mxGeometry>
        </mxCell>
        <mxCell id="5bShoopTlFWPeDc6z4Nc-56" value="对事物的感知的感知的感知" style="text;html=1;align=center;verticalAlign=middle;whiteSpace=wrap;rounded=0;fillColor=#fff2cc;strokeColor=#d6b656;" parent="1" vertex="1">
          <mxGeometry x="890" y="580" width="80" height="40" as="geometry" />
        </mxCell>
        <mxCell id="5bShoopTlFWPeDc6z4Nc-59" value="" style="edgeStyle=orthogonalEdgeStyle;rounded=0;orthogonalLoop=1;jettySize=auto;html=1;exitX=0;exitY=0.5;exitDx=0;exitDy=0;" parent="1" source="5bShoopTlFWPeDc6z4Nc-58" edge="1">
          <mxGeometry relative="1" as="geometry">
            <mxPoint x="1130" y="500" as="targetPoint" />
            <Array as="points" />
          </mxGeometry>
        </mxCell>
        <mxCell id="5bShoopTlFWPeDc6z4Nc-58" value="对事物的感知的感知的感知的感知" style="text;html=1;align=center;verticalAlign=middle;whiteSpace=wrap;rounded=0;fillColor=#fff2cc;strokeColor=#d6b656;" parent="1" vertex="1">
          <mxGeometry x="1150" y="480" width="109" height="40" as="geometry" />
        </mxCell>
        <mxCell id="5bShoopTlFWPeDc6z4Nc-62" value="" style="edgeStyle=orthogonalEdgeStyle;rounded=0;orthogonalLoop=1;jettySize=auto;html=1;" parent="1" source="5bShoopTlFWPeDc6z4Nc-60" target="5bShoopTlFWPeDc6z4Nc-1" edge="1">
          <mxGeometry relative="1" as="geometry" />
        </mxCell>
        <mxCell id="5bShoopTlFWPeDc6z4Nc-60" value="2个元素间的关系" style="rounded=1;whiteSpace=wrap;html=1;" parent="1" vertex="1">
          <mxGeometry x="160" y="560" width="120" height="40" as="geometry" />
        </mxCell>
        <mxCell id="dy8uUhy22T9sQn6Ebb2S-1" value="现代科学" style="rounded=1;whiteSpace=wrap;html=1;" parent="1" vertex="1">
          <mxGeometry x="394" y="320" width="80" height="40" as="geometry" />
        </mxCell>
        <mxCell id="dy8uUhy22T9sQn6Ebb2S-11" style="edgeStyle=orthogonalEdgeStyle;rounded=0;orthogonalLoop=1;jettySize=auto;html=1;exitX=0.5;exitY=0;exitDx=0;exitDy=0;entryX=0;entryY=0.5;entryDx=0;entryDy=0;" parent="1" source="dy8uUhy22T9sQn6Ebb2S-7" target="dy8uUhy22T9sQn6Ebb2S-8" edge="1">
          <mxGeometry relative="1" as="geometry" />
        </mxCell>
        <mxCell id="dy8uUhy22T9sQn6Ebb2S-12" style="edgeStyle=orthogonalEdgeStyle;rounded=0;orthogonalLoop=1;jettySize=auto;html=1;exitX=0.5;exitY=1;exitDx=0;exitDy=0;entryX=0;entryY=0.5;entryDx=0;entryDy=0;" parent="1" source="dy8uUhy22T9sQn6Ebb2S-7" target="dy8uUhy22T9sQn6Ebb2S-10" edge="1">
          <mxGeometry relative="1" as="geometry" />
        </mxCell>
        <mxCell id="dy8uUhy22T9sQn6Ebb2S-13" value="" style="edgeStyle=orthogonalEdgeStyle;rounded=0;orthogonalLoop=1;jettySize=auto;html=1;" parent="1" source="dy8uUhy22T9sQn6Ebb2S-7" target="dy8uUhy22T9sQn6Ebb2S-9" edge="1">
          <mxGeometry relative="1" as="geometry" />
        </mxCell>
        <mxCell id="dy8uUhy22T9sQn6Ebb2S-7" value="修辞" style="rounded=1;whiteSpace=wrap;html=1;" parent="1" vertex="1">
          <mxGeometry x="40" y="780" width="40" height="40" as="geometry" />
        </mxCell>
        <mxCell id="dy8uUhy22T9sQn6Ebb2S-8" value="排比" style="rounded=1;whiteSpace=wrap;html=1;" parent="1" vertex="1">
          <mxGeometry x="120" y="720" width="40" height="40" as="geometry" />
        </mxCell>
        <mxCell id="dy8uUhy22T9sQn6Ebb2S-9" value="类比" style="rounded=1;whiteSpace=wrap;html=1;" parent="1" vertex="1">
          <mxGeometry x="120" y="780" width="40" height="40" as="geometry" />
        </mxCell>
        <mxCell id="dy8uUhy22T9sQn6Ebb2S-10" value="具象" style="rounded=1;whiteSpace=wrap;html=1;" parent="1" vertex="1">
          <mxGeometry x="120" y="840" width="40" height="40" as="geometry" />
        </mxCell>
        <mxCell id="dy8uUhy22T9sQn6Ebb2S-18" value="" style="edgeStyle=orthogonalEdgeStyle;rounded=0;orthogonalLoop=1;jettySize=auto;html=1;" parent="1" source="dy8uUhy22T9sQn6Ebb2S-14" target="dy8uUhy22T9sQn6Ebb2S-15" edge="1">
          <mxGeometry relative="1" as="geometry" />
        </mxCell>
        <mxCell id="dy8uUhy22T9sQn6Ebb2S-14" value="做个专业的猛人" style="rounded=1;whiteSpace=wrap;html=1;" parent="1" vertex="1">
          <mxGeometry x="40" y="920" width="100" height="40" as="geometry" />
        </mxCell>
        <mxCell id="dy8uUhy22T9sQn6Ebb2S-19" value="" style="edgeStyle=orthogonalEdgeStyle;rounded=0;orthogonalLoop=1;jettySize=auto;html=1;" parent="1" source="dy8uUhy22T9sQn6Ebb2S-15" target="dy8uUhy22T9sQn6Ebb2S-16" edge="1">
          <mxGeometry relative="1" as="geometry" />
        </mxCell>
        <mxCell id="dy8uUhy22T9sQn6Ebb2S-15" value="做得久" style="rounded=1;whiteSpace=wrap;html=1;" parent="1" vertex="1">
          <mxGeometry x="200" y="920" width="40" height="40" as="geometry" />
        </mxCell>
        <mxCell id="dy8uUhy22T9sQn6Ebb2S-20" value="" style="edgeStyle=orthogonalEdgeStyle;rounded=0;orthogonalLoop=1;jettySize=auto;html=1;" parent="1" source="dy8uUhy22T9sQn6Ebb2S-16" target="dy8uUhy22T9sQn6Ebb2S-17" edge="1">
          <mxGeometry relative="1" as="geometry" />
        </mxCell>
        <mxCell id="dy8uUhy22T9sQn6Ebb2S-16" value="想得深" style="rounded=1;whiteSpace=wrap;html=1;" parent="1" vertex="1">
          <mxGeometry x="280" y="920" width="40" height="40" as="geometry" />
        </mxCell>
        <mxCell id="dy8uUhy22T9sQn6Ebb2S-17" value="干得狠" style="rounded=1;whiteSpace=wrap;html=1;" parent="1" vertex="1">
          <mxGeometry x="360" y="920" width="40" height="40" as="geometry" />
        </mxCell>
        <mxCell id="dy8uUhy22T9sQn6Ebb2S-25" value="" style="edgeStyle=orthogonalEdgeStyle;rounded=0;orthogonalLoop=1;jettySize=auto;html=1;" parent="1" source="dy8uUhy22T9sQn6Ebb2S-22" target="dy8uUhy22T9sQn6Ebb2S-23" edge="1">
          <mxGeometry relative="1" as="geometry" />
        </mxCell>
        <mxCell id="dy8uUhy22T9sQn6Ebb2S-22" value="价值观" style="rounded=1;whiteSpace=wrap;html=1;" parent="1" vertex="1">
          <mxGeometry x="40" y="1000" width="60" height="40" as="geometry" />
        </mxCell>
        <mxCell id="dy8uUhy22T9sQn6Ebb2S-26" value="" style="edgeStyle=orthogonalEdgeStyle;rounded=0;orthogonalLoop=1;jettySize=auto;html=1;" parent="1" source="dy8uUhy22T9sQn6Ebb2S-23" target="dy8uUhy22T9sQn6Ebb2S-24" edge="1">
          <mxGeometry relative="1" as="geometry" />
        </mxCell>
        <mxCell id="dy8uUhy22T9sQn6Ebb2S-23" value="什么最重要？" style="rounded=1;whiteSpace=wrap;html=1;" parent="1" vertex="1">
          <mxGeometry x="140" y="1000" width="100" height="40" as="geometry" />
        </mxCell>
        <mxCell id="dy8uUhy22T9sQn6Ebb2S-24" value="不再为生活必需品出售自己的时间" style="rounded=1;whiteSpace=wrap;html=1;" parent="1" vertex="1">
          <mxGeometry x="280" y="1000" width="120" height="40" as="geometry" />
        </mxCell>
        <mxCell id="dy8uUhy22T9sQn6Ebb2S-29" value="" style="edgeStyle=orthogonalEdgeStyle;rounded=0;orthogonalLoop=1;jettySize=auto;html=1;" parent="1" source="dy8uUhy22T9sQn6Ebb2S-27" target="dy8uUhy22T9sQn6Ebb2S-28" edge="1">
          <mxGeometry relative="1" as="geometry" />
        </mxCell>
        <mxCell id="dy8uUhy22T9sQn6Ebb2S-27" value="资源的诅咒" style="rounded=1;whiteSpace=wrap;html=1;" parent="1" vertex="1">
          <mxGeometry x="40" y="1080" width="100" height="40" as="geometry" />
        </mxCell>
        <mxCell id="dy8uUhy22T9sQn6Ebb2S-28" value="一切天生的优势都自带副作用" style="rounded=1;whiteSpace=wrap;html=1;" parent="1" vertex="1">
          <mxGeometry x="180" y="1080" width="100" height="40" as="geometry" />
        </mxCell>
        <mxCell id="dy8uUhy22T9sQn6Ebb2S-34" style="edgeStyle=orthogonalEdgeStyle;rounded=0;orthogonalLoop=1;jettySize=auto;html=1;exitX=0.5;exitY=1;exitDx=0;exitDy=0;entryX=0.5;entryY=0;entryDx=0;entryDy=0;" parent="1" source="dy8uUhy22T9sQn6Ebb2S-30" target="dy8uUhy22T9sQn6Ebb2S-15" edge="1">
          <mxGeometry relative="1" as="geometry" />
        </mxCell>
        <mxCell id="dy8uUhy22T9sQn6Ebb2S-30" value="靠耐心" style="text;html=1;align=center;verticalAlign=middle;whiteSpace=wrap;rounded=0;fillColor=#fff2cc;strokeColor=#d6b656;" parent="1" vertex="1">
          <mxGeometry x="200" y="860" width="40" height="40" as="geometry" />
        </mxCell>
        <mxCell id="dy8uUhy22T9sQn6Ebb2S-35" style="edgeStyle=orthogonalEdgeStyle;rounded=0;orthogonalLoop=1;jettySize=auto;html=1;exitX=0.5;exitY=1;exitDx=0;exitDy=0;entryX=0.5;entryY=0;entryDx=0;entryDy=0;" parent="1" source="dy8uUhy22T9sQn6Ebb2S-31" target="dy8uUhy22T9sQn6Ebb2S-16" edge="1">
          <mxGeometry relative="1" as="geometry" />
        </mxCell>
        <mxCell id="dy8uUhy22T9sQn6Ebb2S-31" value="靠聪明" style="text;html=1;align=center;verticalAlign=middle;whiteSpace=wrap;rounded=0;fillColor=#fff2cc;strokeColor=#d6b656;" parent="1" vertex="1">
          <mxGeometry x="280" y="860" width="40" height="40" as="geometry" />
        </mxCell>
        <mxCell id="dy8uUhy22T9sQn6Ebb2S-36" style="edgeStyle=orthogonalEdgeStyle;rounded=0;orthogonalLoop=1;jettySize=auto;html=1;exitX=0.5;exitY=1;exitDx=0;exitDy=0;entryX=0.5;entryY=0;entryDx=0;entryDy=0;" parent="1" source="dy8uUhy22T9sQn6Ebb2S-32" target="dy8uUhy22T9sQn6Ebb2S-17" edge="1">
          <mxGeometry relative="1" as="geometry" />
        </mxCell>
        <mxCell id="dy8uUhy22T9sQn6Ebb2S-32" value="靠勇气" style="text;html=1;align=center;verticalAlign=middle;whiteSpace=wrap;rounded=0;fillColor=#fff2cc;strokeColor=#d6b656;" parent="1" vertex="1">
          <mxGeometry x="360" y="860" width="40" height="40" as="geometry" />
        </mxCell>
        <mxCell id="39l9zTleFLtUQJY5lR-o-7" value="" style="edgeStyle=orthogonalEdgeStyle;rounded=0;orthogonalLoop=1;jettySize=auto;html=1;" edge="1" parent="1" source="39l9zTleFLtUQJY5lR-o-1" target="39l9zTleFLtUQJY5lR-o-2">
          <mxGeometry relative="1" as="geometry" />
        </mxCell>
        <mxCell id="39l9zTleFLtUQJY5lR-o-1" value="主语" style="rounded=1;whiteSpace=wrap;html=1;" vertex="1" parent="1">
          <mxGeometry x="959" y="880" width="40" height="40" as="geometry" />
        </mxCell>
        <mxCell id="39l9zTleFLtUQJY5lR-o-6" value="" style="edgeStyle=orthogonalEdgeStyle;rounded=0;orthogonalLoop=1;jettySize=auto;html=1;" edge="1" parent="1" source="39l9zTleFLtUQJY5lR-o-2" target="39l9zTleFLtUQJY5lR-o-3">
          <mxGeometry relative="1" as="geometry" />
        </mxCell>
        <mxCell id="39l9zTleFLtUQJY5lR-o-2" value="谓语" style="rounded=1;whiteSpace=wrap;html=1;" vertex="1" parent="1">
          <mxGeometry x="1039" y="880" width="40" height="40" as="geometry" />
        </mxCell>
        <mxCell id="39l9zTleFLtUQJY5lR-o-5" value="" style="edgeStyle=orthogonalEdgeStyle;rounded=0;orthogonalLoop=1;jettySize=auto;html=1;" edge="1" parent="1" source="39l9zTleFLtUQJY5lR-o-3" target="39l9zTleFLtUQJY5lR-o-4">
          <mxGeometry relative="1" as="geometry" />
        </mxCell>
        <mxCell id="39l9zTleFLtUQJY5lR-o-3" value="宾语" style="rounded=1;whiteSpace=wrap;html=1;" vertex="1" parent="1">
          <mxGeometry x="1119" y="880" width="40" height="40" as="geometry" />
        </mxCell>
        <mxCell id="39l9zTleFLtUQJY5lR-o-4" value="宾语" style="rounded=1;whiteSpace=wrap;html=1;" vertex="1" parent="1">
          <mxGeometry x="1199" y="880" width="40" height="40" as="geometry" />
        </mxCell>
        <mxCell id="39l9zTleFLtUQJY5lR-o-11" style="edgeStyle=orthogonalEdgeStyle;rounded=0;orthogonalLoop=1;jettySize=auto;html=1;exitX=0.75;exitY=0;exitDx=0;exitDy=0;entryX=0.5;entryY=1;entryDx=0;entryDy=0;" edge="1" parent="1" source="39l9zTleFLtUQJY5lR-o-10">
          <mxGeometry relative="1" as="geometry">
            <mxPoint x="1299" y="920" as="targetPoint" />
          </mxGeometry>
        </mxCell>
        <mxCell id="39l9zTleFLtUQJY5lR-o-12" style="edgeStyle=orthogonalEdgeStyle;rounded=0;orthogonalLoop=1;jettySize=auto;html=1;exitX=0;exitY=0.5;exitDx=0;exitDy=0;entryX=0.5;entryY=1;entryDx=0;entryDy=0;" edge="1" parent="1" source="39l9zTleFLtUQJY5lR-o-10" target="39l9zTleFLtUQJY5lR-o-2">
          <mxGeometry relative="1" as="geometry" />
        </mxCell>
        <mxCell id="39l9zTleFLtUQJY5lR-o-10" value="补语其实是对谓语的补充" style="text;html=1;align=left;verticalAlign=middle;whiteSpace=wrap;rounded=0;fillColor=#fff2cc;strokeColor=#d6b656;" vertex="1" parent="1">
          <mxGeometry x="1240" y="1000" width="79" height="40" as="geometry" />
        </mxCell>
        <mxCell id="39l9zTleFLtUQJY5lR-o-15" style="edgeStyle=orthogonalEdgeStyle;rounded=0;orthogonalLoop=1;jettySize=auto;html=1;exitX=0.5;exitY=0;exitDx=0;exitDy=0;entryX=0.5;entryY=1;entryDx=0;entryDy=0;" edge="1" parent="1" source="39l9zTleFLtUQJY5lR-o-13" target="39l9zTleFLtUQJY5lR-o-3">
          <mxGeometry relative="1" as="geometry" />
        </mxCell>
        <mxCell id="39l9zTleFLtUQJY5lR-o-13" value="可省略" style="text;html=1;align=left;verticalAlign=middle;whiteSpace=wrap;rounded=0;fillColor=#fff2cc;strokeColor=#d6b656;" vertex="1" parent="1">
          <mxGeometry x="1119" y="940" width="40" height="40" as="geometry" />
        </mxCell>
        <mxCell id="39l9zTleFLtUQJY5lR-o-16" style="edgeStyle=orthogonalEdgeStyle;rounded=0;orthogonalLoop=1;jettySize=auto;html=1;exitX=0.5;exitY=0;exitDx=0;exitDy=0;entryX=0.5;entryY=1;entryDx=0;entryDy=0;" edge="1" parent="1" source="39l9zTleFLtUQJY5lR-o-14" target="39l9zTleFLtUQJY5lR-o-4">
          <mxGeometry relative="1" as="geometry" />
        </mxCell>
        <mxCell id="39l9zTleFLtUQJY5lR-o-14" value="可省略" style="text;html=1;align=left;verticalAlign=middle;whiteSpace=wrap;rounded=0;fillColor=#fff2cc;strokeColor=#d6b656;" vertex="1" parent="1">
          <mxGeometry x="1199" y="940" width="40" height="40" as="geometry" />
        </mxCell>
        <mxCell id="39l9zTleFLtUQJY5lR-o-17" value="定语" style="rounded=1;whiteSpace=wrap;html=1;" vertex="1" parent="1">
          <mxGeometry x="720" y="640" width="40" height="40" as="geometry" />
        </mxCell>
        <mxCell id="39l9zTleFLtUQJY5lR-o-18" value="状语" style="rounded=1;whiteSpace=wrap;html=1;" vertex="1" parent="1">
          <mxGeometry x="1099.5" y="640" width="40" height="40" as="geometry" />
        </mxCell>
        <mxCell id="39l9zTleFLtUQJY5lR-o-80" style="edgeStyle=orthogonalEdgeStyle;rounded=0;orthogonalLoop=1;jettySize=auto;html=1;exitX=0.75;exitY=1;exitDx=0;exitDy=0;entryX=0;entryY=0.5;entryDx=0;entryDy=0;" edge="1" parent="1" source="39l9zTleFLtUQJY5lR-o-20" target="39l9zTleFLtUQJY5lR-o-21">
          <mxGeometry relative="1" as="geometry" />
        </mxCell>
        <mxCell id="39l9zTleFLtUQJY5lR-o-81" style="edgeStyle=orthogonalEdgeStyle;rounded=0;orthogonalLoop=1;jettySize=auto;html=1;exitX=0.75;exitY=1;exitDx=0;exitDy=0;entryX=0;entryY=0.5;entryDx=0;entryDy=0;" edge="1" parent="1" source="39l9zTleFLtUQJY5lR-o-20" target="39l9zTleFLtUQJY5lR-o-22">
          <mxGeometry relative="1" as="geometry" />
        </mxCell>
        <mxCell id="39l9zTleFLtUQJY5lR-o-20" value="非谓语" style="rounded=1;whiteSpace=wrap;html=1;" vertex="1" parent="1">
          <mxGeometry x="1359" y="880" width="40" height="40" as="geometry" />
        </mxCell>
        <mxCell id="39l9zTleFLtUQJY5lR-o-21" value="不定式" style="rounded=1;whiteSpace=wrap;html=1;" vertex="1" parent="1">
          <mxGeometry x="1410" y="940" width="40" height="40" as="geometry" />
        </mxCell>
        <mxCell id="39l9zTleFLtUQJY5lR-o-22" value="动名词" style="rounded=1;whiteSpace=wrap;html=1;" vertex="1" parent="1">
          <mxGeometry x="1410" y="1000" width="40" height="40" as="geometry" />
        </mxCell>
        <mxCell id="39l9zTleFLtUQJY5lR-o-35" value="" style="edgeStyle=orthogonalEdgeStyle;rounded=0;orthogonalLoop=1;jettySize=auto;html=1;entryX=1;entryY=0.5;entryDx=0;entryDy=0;exitX=0.25;exitY=1;exitDx=0;exitDy=0;" edge="1" parent="1" source="39l9zTleFLtUQJY5lR-o-48" target="39l9zTleFLtUQJY5lR-o-34">
          <mxGeometry relative="1" as="geometry">
            <mxPoint x="840" y="740" as="sourcePoint" />
          </mxGeometry>
        </mxCell>
        <mxCell id="39l9zTleFLtUQJY5lR-o-41" style="edgeStyle=orthogonalEdgeStyle;rounded=0;orthogonalLoop=1;jettySize=auto;html=1;exitX=0.25;exitY=1;exitDx=0;exitDy=0;entryX=1;entryY=0.5;entryDx=0;entryDy=0;" edge="1" parent="1" source="39l9zTleFLtUQJY5lR-o-48" target="39l9zTleFLtUQJY5lR-o-40">
          <mxGeometry relative="1" as="geometry">
            <mxPoint x="840" y="740" as="sourcePoint" />
          </mxGeometry>
        </mxCell>
        <mxCell id="39l9zTleFLtUQJY5lR-o-31" style="edgeStyle=orthogonalEdgeStyle;rounded=0;orthogonalLoop=1;jettySize=auto;html=1;exitX=0.25;exitY=1;exitDx=0;exitDy=0;entryX=1;entryY=0.5;entryDx=0;entryDy=0;" edge="1" parent="1" source="39l9zTleFLtUQJY5lR-o-49" target="39l9zTleFLtUQJY5lR-o-37">
          <mxGeometry relative="1" as="geometry">
            <mxPoint x="880" y="600" as="targetPoint" />
          </mxGeometry>
        </mxCell>
        <mxCell id="39l9zTleFLtUQJY5lR-o-32" style="edgeStyle=orthogonalEdgeStyle;rounded=0;orthogonalLoop=1;jettySize=auto;html=1;exitX=0.75;exitY=1;exitDx=0;exitDy=0;entryX=0;entryY=0.5;entryDx=0;entryDy=0;" edge="1" parent="1" source="39l9zTleFLtUQJY5lR-o-50" target="39l9zTleFLtUQJY5lR-o-18">
          <mxGeometry relative="1" as="geometry" />
        </mxCell>
        <mxCell id="39l9zTleFLtUQJY5lR-o-46" style="edgeStyle=orthogonalEdgeStyle;rounded=0;orthogonalLoop=1;jettySize=auto;html=1;exitX=0.75;exitY=1;exitDx=0;exitDy=0;entryX=0;entryY=0.5;entryDx=0;entryDy=0;" edge="1" parent="1" source="39l9zTleFLtUQJY5lR-o-50" target="39l9zTleFLtUQJY5lR-o-45">
          <mxGeometry relative="1" as="geometry" />
        </mxCell>
        <mxCell id="39l9zTleFLtUQJY5lR-o-33" value="名词" style="rounded=1;whiteSpace=wrap;html=1;" vertex="1" parent="1">
          <mxGeometry x="720" y="820" width="40" height="40" as="geometry" />
        </mxCell>
        <mxCell id="39l9zTleFLtUQJY5lR-o-34" value="代词" style="rounded=1;whiteSpace=wrap;html=1;" vertex="1" parent="1">
          <mxGeometry x="720" y="880" width="40" height="40" as="geometry" />
        </mxCell>
        <mxCell id="39l9zTleFLtUQJY5lR-o-37" value="形容词" style="rounded=1;whiteSpace=wrap;html=1;" vertex="1" parent="1">
          <mxGeometry x="720" y="580" width="40" height="40" as="geometry" />
        </mxCell>
        <mxCell id="39l9zTleFLtUQJY5lR-o-40" value="从句" style="rounded=1;whiteSpace=wrap;html=1;" vertex="1" parent="1">
          <mxGeometry x="720" y="940" width="40" height="40" as="geometry" />
        </mxCell>
        <mxCell id="39l9zTleFLtUQJY5lR-o-86" style="edgeStyle=orthogonalEdgeStyle;rounded=0;orthogonalLoop=1;jettySize=auto;html=1;exitX=1;exitY=0.5;exitDx=0;exitDy=0;entryX=0;entryY=0.5;entryDx=0;entryDy=0;" edge="1" parent="1" source="39l9zTleFLtUQJY5lR-o-42" target="39l9zTleFLtUQJY5lR-o-17">
          <mxGeometry relative="1" as="geometry" />
        </mxCell>
        <mxCell id="39l9zTleFLtUQJY5lR-o-87" style="edgeStyle=orthogonalEdgeStyle;rounded=0;orthogonalLoop=1;jettySize=auto;html=1;exitX=1;exitY=0.5;exitDx=0;exitDy=0;entryX=0;entryY=0.5;entryDx=0;entryDy=0;" edge="1" parent="1" source="39l9zTleFLtUQJY5lR-o-42" target="39l9zTleFLtUQJY5lR-o-85">
          <mxGeometry relative="1" as="geometry" />
        </mxCell>
        <mxCell id="39l9zTleFLtUQJY5lR-o-42" value="从句" style="rounded=1;whiteSpace=wrap;html=1;" vertex="1" parent="1">
          <mxGeometry x="639.5" y="670" width="40" height="40" as="geometry" />
        </mxCell>
        <mxCell id="39l9zTleFLtUQJY5lR-o-45" value="副词" style="rounded=1;whiteSpace=wrap;html=1;" vertex="1" parent="1">
          <mxGeometry x="1099.5" y="580" width="40" height="40" as="geometry" />
        </mxCell>
        <mxCell id="39l9zTleFLtUQJY5lR-o-59" value="" style="edgeStyle=orthogonalEdgeStyle;rounded=0;orthogonalLoop=1;jettySize=auto;html=1;entryX=1;entryY=0.5;entryDx=0;entryDy=0;exitX=0.25;exitY=1;exitDx=0;exitDy=0;" edge="1" parent="1" source="39l9zTleFLtUQJY5lR-o-48" target="39l9zTleFLtUQJY5lR-o-33">
          <mxGeometry relative="1" as="geometry" />
        </mxCell>
        <mxCell id="39l9zTleFLtUQJY5lR-o-69" value="发起或接收动作" style="edgeStyle=orthogonalEdgeStyle;rounded=0;orthogonalLoop=1;jettySize=auto;html=1;exitX=1;exitY=0.5;exitDx=0;exitDy=0;entryX=0;entryY=0.5;entryDx=0;entryDy=0;" edge="1" parent="1" source="39l9zTleFLtUQJY5lR-o-48" target="39l9zTleFLtUQJY5lR-o-62">
          <mxGeometry relative="1" as="geometry" />
        </mxCell>
        <mxCell id="39l9zTleFLtUQJY5lR-o-76" style="edgeStyle=orthogonalEdgeStyle;rounded=0;orthogonalLoop=1;jettySize=auto;html=1;exitX=0.5;exitY=1;exitDx=0;exitDy=0;entryX=0.5;entryY=0;entryDx=0;entryDy=0;" edge="1" parent="1" source="39l9zTleFLtUQJY5lR-o-48" target="39l9zTleFLtUQJY5lR-o-1">
          <mxGeometry relative="1" as="geometry">
            <mxPoint x="939" y="840" as="targetPoint" />
            <Array as="points">
              <mxPoint x="800" y="820" />
              <mxPoint x="979" y="820" />
            </Array>
          </mxGeometry>
        </mxCell>
        <mxCell id="39l9zTleFLtUQJY5lR-o-77" style="edgeStyle=orthogonalEdgeStyle;rounded=0;orthogonalLoop=1;jettySize=auto;html=1;exitX=0.5;exitY=1;exitDx=0;exitDy=0;entryX=0.5;entryY=0;entryDx=0;entryDy=0;" edge="1" parent="1" source="39l9zTleFLtUQJY5lR-o-48" target="39l9zTleFLtUQJY5lR-o-3">
          <mxGeometry relative="1" as="geometry" />
        </mxCell>
        <mxCell id="39l9zTleFLtUQJY5lR-o-78" style="edgeStyle=orthogonalEdgeStyle;rounded=0;orthogonalLoop=1;jettySize=auto;html=1;exitX=0.5;exitY=1;exitDx=0;exitDy=0;entryX=0.5;entryY=0;entryDx=0;entryDy=0;" edge="1" parent="1" source="39l9zTleFLtUQJY5lR-o-48" target="39l9zTleFLtUQJY5lR-o-4">
          <mxGeometry relative="1" as="geometry">
            <Array as="points">
              <mxPoint x="800" y="860" />
              <mxPoint x="1219" y="860" />
            </Array>
          </mxGeometry>
        </mxCell>
        <mxCell id="39l9zTleFLtUQJY5lR-o-48" value="名词性成分" style="rounded=1;whiteSpace=wrap;html=1;" vertex="1" parent="1">
          <mxGeometry x="760" y="760" width="80" height="40" as="geometry" />
        </mxCell>
        <mxCell id="39l9zTleFLtUQJY5lR-o-60" style="edgeStyle=orthogonalEdgeStyle;rounded=0;orthogonalLoop=1;jettySize=auto;html=1;exitX=0.25;exitY=1;exitDx=0;exitDy=0;entryX=1;entryY=0.5;entryDx=0;entryDy=0;" edge="1" parent="1" source="39l9zTleFLtUQJY5lR-o-49" target="39l9zTleFLtUQJY5lR-o-17">
          <mxGeometry relative="1" as="geometry" />
        </mxCell>
        <mxCell id="39l9zTleFLtUQJY5lR-o-61" value="修饰" style="edgeStyle=orthogonalEdgeStyle;rounded=0;orthogonalLoop=1;jettySize=auto;html=1;exitX=0.5;exitY=1;exitDx=0;exitDy=0;entryX=0.5;entryY=0;entryDx=0;entryDy=0;" edge="1" parent="1" source="39l9zTleFLtUQJY5lR-o-49" target="39l9zTleFLtUQJY5lR-o-48">
          <mxGeometry relative="1" as="geometry">
            <mxPoint x="800" y="740" as="targetPoint" />
          </mxGeometry>
        </mxCell>
        <mxCell id="39l9zTleFLtUQJY5lR-o-88" style="edgeStyle=orthogonalEdgeStyle;rounded=0;orthogonalLoop=1;jettySize=auto;html=1;exitX=0.25;exitY=1;exitDx=0;exitDy=0;entryX=1;entryY=0.5;entryDx=0;entryDy=0;" edge="1" parent="1" source="39l9zTleFLtUQJY5lR-o-49" target="39l9zTleFLtUQJY5lR-o-85">
          <mxGeometry relative="1" as="geometry" />
        </mxCell>
        <mxCell id="39l9zTleFLtUQJY5lR-o-49" value="形容词性成分" style="rounded=1;whiteSpace=wrap;html=1;" vertex="1" parent="1">
          <mxGeometry x="760" y="520" width="80" height="40" as="geometry" />
        </mxCell>
        <mxCell id="39l9zTleFLtUQJY5lR-o-63" value="" style="edgeStyle=orthogonalEdgeStyle;rounded=0;orthogonalLoop=1;jettySize=auto;html=1;" edge="1" parent="1" source="39l9zTleFLtUQJY5lR-o-50" target="39l9zTleFLtUQJY5lR-o-49">
          <mxGeometry relative="1" as="geometry" />
        </mxCell>
        <mxCell id="39l9zTleFLtUQJY5lR-o-64" value="修饰" style="edgeLabel;html=1;align=center;verticalAlign=middle;resizable=0;points=[];" vertex="1" connectable="0" parent="39l9zTleFLtUQJY5lR-o-63">
          <mxGeometry x="0.1264" y="-3" relative="1" as="geometry">
            <mxPoint x="12" y="3" as="offset" />
          </mxGeometry>
        </mxCell>
        <mxCell id="39l9zTleFLtUQJY5lR-o-65" style="edgeStyle=orthogonalEdgeStyle;rounded=0;orthogonalLoop=1;jettySize=auto;html=1;exitX=0.5;exitY=1;exitDx=0;exitDy=0;entryX=0.5;entryY=0;entryDx=0;entryDy=0;" edge="1" parent="1" source="39l9zTleFLtUQJY5lR-o-50" target="39l9zTleFLtUQJY5lR-o-62">
          <mxGeometry relative="1" as="geometry" />
        </mxCell>
        <mxCell id="39l9zTleFLtUQJY5lR-o-66" value="修饰" style="edgeLabel;html=1;align=center;verticalAlign=middle;resizable=0;points=[];" vertex="1" connectable="0" parent="39l9zTleFLtUQJY5lR-o-65">
          <mxGeometry x="0.052" relative="1" as="geometry">
            <mxPoint y="-5" as="offset" />
          </mxGeometry>
        </mxCell>
        <mxCell id="39l9zTleFLtUQJY5lR-o-84" style="edgeStyle=orthogonalEdgeStyle;rounded=0;orthogonalLoop=1;jettySize=auto;html=1;exitX=0.75;exitY=1;exitDx=0;exitDy=0;entryX=0;entryY=0.5;entryDx=0;entryDy=0;" edge="1" parent="1" source="39l9zTleFLtUQJY5lR-o-50" target="39l9zTleFLtUQJY5lR-o-83">
          <mxGeometry relative="1" as="geometry" />
        </mxCell>
        <mxCell id="39l9zTleFLtUQJY5lR-o-50" value="副词性成分" style="rounded=1;whiteSpace=wrap;html=1;" vertex="1" parent="1">
          <mxGeometry x="1019.5" y="520" width="80" height="40" as="geometry" />
        </mxCell>
        <mxCell id="39l9zTleFLtUQJY5lR-o-51" value="一般疑问句" style="rounded=1;whiteSpace=wrap;html=1;" vertex="1" parent="1">
          <mxGeometry x="559.5" y="300" width="80" height="40" as="geometry" />
        </mxCell>
        <mxCell id="39l9zTleFLtUQJY5lR-o-52" value="特殊疑问句" style="rounded=1;whiteSpace=wrap;html=1;" vertex="1" parent="1">
          <mxGeometry x="559.5" y="360" width="80" height="40" as="geometry" />
        </mxCell>
        <mxCell id="39l9zTleFLtUQJY5lR-o-54" style="edgeStyle=orthogonalEdgeStyle;rounded=0;orthogonalLoop=1;jettySize=auto;html=1;exitX=0.5;exitY=1;exitDx=0;exitDy=0;entryX=0;entryY=0.5;entryDx=0;entryDy=0;" edge="1" parent="1" source="39l9zTleFLtUQJY5lR-o-53" target="39l9zTleFLtUQJY5lR-o-51">
          <mxGeometry relative="1" as="geometry" />
        </mxCell>
        <mxCell id="39l9zTleFLtUQJY5lR-o-55" style="edgeStyle=orthogonalEdgeStyle;rounded=0;orthogonalLoop=1;jettySize=auto;html=1;exitX=0.5;exitY=1;exitDx=0;exitDy=0;entryX=0;entryY=0.5;entryDx=0;entryDy=0;" edge="1" parent="1" source="39l9zTleFLtUQJY5lR-o-53" target="39l9zTleFLtUQJY5lR-o-52">
          <mxGeometry relative="1" as="geometry" />
        </mxCell>
        <mxCell id="39l9zTleFLtUQJY5lR-o-53" value="疑问句" style="rounded=1;whiteSpace=wrap;html=1;" vertex="1" parent="1">
          <mxGeometry x="520.5" y="240" width="39" height="40" as="geometry" />
        </mxCell>
        <mxCell id="39l9zTleFLtUQJY5lR-o-75" style="edgeStyle=orthogonalEdgeStyle;rounded=0;orthogonalLoop=1;jettySize=auto;html=1;exitX=0.5;exitY=1;exitDx=0;exitDy=0;" edge="1" parent="1" source="39l9zTleFLtUQJY5lR-o-62" target="39l9zTleFLtUQJY5lR-o-2">
          <mxGeometry relative="1" as="geometry" />
        </mxCell>
        <mxCell id="39l9zTleFLtUQJY5lR-o-62" value="动词" style="rounded=1;whiteSpace=wrap;html=1;" vertex="1" parent="1">
          <mxGeometry x="1039.5" y="760" width="40" height="40" as="geometry" />
        </mxCell>
        <mxCell id="39l9zTleFLtUQJY5lR-o-67" style="edgeStyle=orthogonalEdgeStyle;rounded=0;orthogonalLoop=1;jettySize=auto;html=1;exitX=0.5;exitY=0;exitDx=0;exitDy=0;entryX=1;entryY=0.5;entryDx=0;entryDy=0;" edge="1" parent="1" source="39l9zTleFLtUQJY5lR-o-50" target="39l9zTleFLtUQJY5lR-o-50">
          <mxGeometry relative="1" as="geometry" />
        </mxCell>
        <mxCell id="39l9zTleFLtUQJY5lR-o-68" value="修饰" style="edgeLabel;html=1;align=center;verticalAlign=middle;resizable=0;points=[];" vertex="1" connectable="0" parent="39l9zTleFLtUQJY5lR-o-67">
          <mxGeometry x="0.0386" relative="1" as="geometry">
            <mxPoint as="offset" />
          </mxGeometry>
        </mxCell>
        <mxCell id="39l9zTleFLtUQJY5lR-o-82" style="edgeStyle=orthogonalEdgeStyle;rounded=0;orthogonalLoop=1;jettySize=auto;html=1;exitX=0.5;exitY=0;exitDx=0;exitDy=0;entryX=0.5;entryY=1;entryDx=0;entryDy=0;" edge="1" parent="1" source="39l9zTleFLtUQJY5lR-o-79" target="39l9zTleFLtUQJY5lR-o-20">
          <mxGeometry relative="1" as="geometry" />
        </mxCell>
        <mxCell id="39l9zTleFLtUQJY5lR-o-79" value="英语要求只能有一个动词作谓语，如果有更多的动作就要用非谓语" style="text;html=1;align=left;verticalAlign=middle;whiteSpace=wrap;rounded=0;fillColor=#fff2cc;strokeColor=#d6b656;" vertex="1" parent="1">
          <mxGeometry x="1338.5" y="1060" width="81" height="80" as="geometry" />
        </mxCell>
        <mxCell id="39l9zTleFLtUQJY5lR-o-83" value="补语" style="rounded=1;whiteSpace=wrap;html=1;" vertex="1" parent="1">
          <mxGeometry x="1099.5" y="700" width="40" height="40" as="geometry" />
        </mxCell>
        <mxCell id="39l9zTleFLtUQJY5lR-o-85" value="表语" style="rounded=1;whiteSpace=wrap;html=1;" vertex="1" parent="1">
          <mxGeometry x="720" y="700" width="40" height="40" as="geometry" />
        </mxCell>
        <mxCell id="39l9zTleFLtUQJY5lR-o-90" style="edgeStyle=orthogonalEdgeStyle;rounded=0;orthogonalLoop=1;jettySize=auto;html=1;exitX=0;exitY=0.5;exitDx=0;exitDy=0;entryX=1;entryY=0.5;entryDx=0;entryDy=0;" edge="1" parent="1" source="39l9zTleFLtUQJY5lR-o-89" target="39l9zTleFLtUQJY5lR-o-18">
          <mxGeometry relative="1" as="geometry" />
        </mxCell>
        <mxCell id="39l9zTleFLtUQJY5lR-o-91" style="edgeStyle=orthogonalEdgeStyle;rounded=0;orthogonalLoop=1;jettySize=auto;html=1;exitX=0;exitY=0.5;exitDx=0;exitDy=0;entryX=1;entryY=0.5;entryDx=0;entryDy=0;" edge="1" parent="1" source="39l9zTleFLtUQJY5lR-o-89" target="39l9zTleFLtUQJY5lR-o-83">
          <mxGeometry relative="1" as="geometry" />
        </mxCell>
        <mxCell id="39l9zTleFLtUQJY5lR-o-89" value="从句" style="rounded=1;whiteSpace=wrap;html=1;" vertex="1" parent="1">
          <mxGeometry x="1180" y="670" width="40" height="40" as="geometry" />
        </mxCell>
      </root>
    </mxGraphModel>
  </diagram>
</mxfile>
